<?xml version="1.0" encoding="utf-8"?>
<!-- Generator: Adobe Illustrator 26.4.0, SVG Export Plug-In . SVG Version: 6.00 Build 0)  -->
<svg version="1.1" id="Calque_1" xmlns="http://www.w3.org/2000/svg" xmlns:xlink="http://www.w3.org/1999/xlink" x="0px" y="0px"
	 viewBox="0 0 425.2 212.6" style="enable-background:new 0 0 425.2 212.6;" xml:space="preserve">
<style type="text/css">
	.st0{fill:#FFFFFF;}
</style>
<path d="M0.02,212.57C0.01,95.19,95.19,0.03,212.59,0.03C330,0.02,425.16,95.19,425.17,212.58
	c-0.01,117.38-95.18,212.57-212.58,212.57S0.02,329.97,0.02,212.57z"/>
<g>
	<path class="st0" d="M212.59,66.23c-51.25,0-85.68,32.87-127.41,64.78c40.2,31.41,76.16,64.77,127.42,64.77
		c51.27,0,85.46-33.36,127.4-64.78C301.91,100.74,263.86,66.23,212.59,66.23z"/>
	<path class="st0" d="M163.54,131c-0.01-27.1,21.97-49.06,49.06-49.05c27.09-0.01,49.05,21.95,49.04,49.06
		c0.01,27.09-21.95,49.06-49.06,49.06C185.51,180.07,163.54,158.09,163.54,131z"/>
</g>
<g>
	<path class="st0" d="M212.6,229.38c-51.26,0-85.68,32.87-127.41,64.79c40.2,31.42,76.15,64.78,127.41,64.78
		c51.28,0,85.46-33.35,127.42-64.78C301.91,263.91,263.86,229.38,212.6,229.38z"/>
	<path d="M163.54,294.17c0-27.1,21.98-49.06,49.06-49.06c27.1,0,49.06,21.96,49.06,49.06c0,27.09-21.95,49.06-49.05,49.06
		C185.51,343.22,163.54,321.26,163.54,294.17z"/>
</g>
</svg>
