<?xml version="1.0" encoding="utf-8"?>
<!-- Generator: Adobe Illustrator 26.4.0, SVG Export Plug-In . SVG Version: 6.00 Build 0)  -->
<svg version="1.1" id="Calque_1" xmlns="http://www.w3.org/2000/svg" xmlns:xlink="http://www.w3.org/1999/xlink" x="0px" y="0px"
	 viewBox="0 0 16 16" style="enable-background:new 0 0 16 16;" xml:space="preserve">
<style type="text/css">
	.st0{fill:#FFFFFF;}
</style>
<path class="st0" d="M8,0C5.83,0,5.56,0.01,4.7,0.05C3.85,0.09,3.27,0.22,2.76,0.42c-0.53,0.2-1.02,0.52-1.42,0.92
	c-0.41,0.4-0.72,0.88-0.92,1.42C0.22,3.27,0.09,3.85,0.05,4.7C0.01,5.55,0,5.83,0,8c0,2.17,0.01,2.44,0.05,3.3
	c0.04,0.85,0.17,1.43,0.37,1.94c0.2,0.53,0.48,0.97,0.92,1.42c0.44,0.44,0.89,0.72,1.42,0.92c0.51,0.2,1.09,0.33,1.94,0.37
	C5.55,15.99,5.83,16,8,16s2.44-0.01,3.3-0.05c0.85-0.04,1.43-0.17,1.94-0.37c0.53-0.2,1.02-0.52,1.42-0.92
	c0.44-0.44,0.72-0.89,0.92-1.42c0.2-0.51,0.33-1.09,0.37-1.94C15.99,10.44,16,10.17,16,8s-0.01-2.44-0.05-3.3
	c-0.04-0.85-0.18-1.43-0.37-1.94c-0.2-0.53-0.52-1.02-0.92-1.42c-0.4-0.41-0.88-0.72-1.42-0.92c-0.51-0.2-1.09-0.33-1.94-0.37
	C10.44,0.01,10.17,0,8,0L8,0z M7.28,1.44H8c2.14,0,2.39,0.01,3.23,0.05c0.78,0.03,1.2,0.17,1.49,0.27c0.37,0.14,0.64,0.32,0.92,0.6
	s0.45,0.55,0.6,0.92c0.11,0.28,0.24,0.7,0.27,1.49c0.04,0.84,0.05,1.1,0.05,3.23s-0.01,2.39-0.05,3.23
	c-0.03,0.78-0.17,1.2-0.27,1.48c-0.13,0.35-0.33,0.66-0.6,0.92c-0.28,0.28-0.55,0.45-0.92,0.6c-0.28,0.11-0.7,0.24-1.48,0.28
	c-0.84,0.04-1.1,0.05-3.23,0.05s-2.39-0.01-3.23-0.05c-0.78-0.04-1.2-0.17-1.49-0.28c-0.35-0.13-0.66-0.33-0.92-0.6
	c-0.27-0.26-0.47-0.57-0.6-0.92c-0.11-0.28-0.24-0.7-0.27-1.48C1.45,10.39,1.44,10.13,1.44,8s0.01-2.39,0.05-3.23
	c0.04-0.78,0.17-1.2,0.28-1.49c0.14-0.37,0.32-0.64,0.6-0.92s0.55-0.45,0.92-0.6c0.28-0.11,0.7-0.24,1.49-0.28
	C5.51,1.45,5.79,1.44,7.28,1.44L7.28,1.44z M12.27,2.77c-0.53,0-0.96,0.43-0.96,0.96s0.43,0.96,0.96,0.96l0,0
	c0.53,0,0.96-0.43,0.96-0.96S12.8,2.77,12.27,2.77 M8,3.89C5.73,3.86,3.86,5.67,3.83,7.94c-0.04,2.27,1.78,4.14,4.04,4.17
	c0.04,0,0.09,0,0.13,0c2.27-0.04,4.08-1.9,4.04-4.17C12.01,5.72,10.22,3.93,8,3.89 M8,5.33c1.47,0,2.67,1.19,2.67,2.67
	S9.48,10.67,8,10.67c0,0,0,0,0,0c-1.47,0-2.67-1.19-2.67-2.67S6.53,5.33,8,5.33"/>
</svg>
